<svg xmlns="http://www.w3.org/2000/svg" xmlns:xlink="http://www.w3.org/1999/xlink" width="60" height="39" viewBox="0 0 60 39">
  <defs>
    <clipPath id="clip-path">
      <rect id="사각형_13672" data-name="사각형 13672" width="60" height="39" fill="none"/>
    </clipPath>
  </defs>
  <g id="logo" clip-path="url(#clip-path)">
    <path id="패스_33030" data-name="패스 33030" d="M50.038,31.6,3.74,33.515.14,13.22S-1.836,2.647,9.06,1.978C20.267,1.289,50.835,0,50.835,0L55.6,14.479,60,14.24,52.659,39Z" transform="translate(0)" fill="#13c0c7"/>
    <path id="패스_33031" data-name="패스 33031" d="M47.667,93.265l.384-3.091a14.027,14.027,0,0,0,3.217.252q.722-.038,1.275-.09t.983-.136l-.049-.928-1.741-.049a8.828,8.828,0,0,1-1.978-.269,3.289,3.289,0,0,1-1.3-.654,2.562,2.562,0,0,1-.732-1.063,5.076,5.076,0,0,1-.28-1.5,6.573,6.573,0,0,1,.152-2,2.787,2.787,0,0,1,.751-1.326,3.277,3.277,0,0,1,1.416-.764,10.07,10.07,0,0,1,2.165-.314,21.219,21.219,0,0,1,4.648.224l-.325,2.995a19.8,19.8,0,0,0-2.888-.129,15.312,15.312,0,0,0-1.825.188l.048.913,1.387.052a9.745,9.745,0,0,1,2.141.3,3.933,3.933,0,0,1,1.412.679,2.568,2.568,0,0,1,.8,1.06,4.5,4.5,0,0,1,.294,1.443,5.366,5.366,0,0,1-.216,2,3.332,3.332,0,0,1-.706,1.262,2.624,2.624,0,0,1-.887.581,6.292,6.292,0,0,1-1.141.346,10.894,10.894,0,0,1-1.222.18q-.617.055-1.114.081a22.66,22.66,0,0,1-2.414,0,21.439,21.439,0,0,1-2.25-.24" transform="translate(-44.412 -76.174)"/>
    <path id="패스_33032" data-name="패스 33032" d="M231.786,81.018l-3.853.2.074,1.408,4.72-.245.157,2.97-8.572.446-.613-11.6,8.476-.441-.325,2.995-4.142.215.083,1.562,3.853-.2Z" transform="translate(-209.456 -69.107)"/>
    <path id="패스_33033" data-name="패스 33033" d="M381.9,141.5l4.519-.3.1,2.32-4.519.3Z" transform="translate(-357.587 -132.302)"/>
    <path id="패스_33034" data-name="패스 33034" d="M462.477,57.4l4.061-.211-2.373,11.756-5.618.292-3.6-11.446,4.061-.211,2.026,7.278.177-.009Z" transform="translate(-425.983 -53.589)"/>
    <path id="패스_33035" data-name="패스 33035" d="M647.14,61.753l-4.061.211,2.5-11.763,5.956-.31,3.727,11.439-4.061.211-.547-1.817-3.178.165Zm1.5-8.144-.615,3.289,1.766-.092L648.85,53.6Z" transform="translate(-602.135 -46.748)"/>
    <path id="패스_33036" data-name="패스 33036" d="M66.711,292.648l-9.454.508.156,3.053,2.8-.15.453,8.872,3.859-.207-.453-8.872,2.8-.15Z" transform="translate(-53.612 -274.208)"/>
    <path id="패스_33037" data-name="패스 33037" d="M228.732,285.7a4.469,4.469,0,0,0-1.048-1.9,3.936,3.936,0,0,0-1.81-1.035,10.2,10.2,0,0,0-5.41.291,3.959,3.959,0,0,0-1.7,1.224,4.49,4.49,0,0,0-.849,2,12.367,12.367,0,0,0-.137,2.837,12.787,12.787,0,0,0,.4,2.713,4.474,4.474,0,0,0,1.008,1.9,3.921,3.921,0,0,0,1.812,1.074,10.083,10.083,0,0,0,5.547-.3,3.95,3.95,0,0,0,1.693-1.263,4.5,4.5,0,0,0,.809-2,12.828,12.828,0,0,0,.118-2.741,12.374,12.374,0,0,0-.426-2.807m-3.909,5.838a2.635,2.635,0,0,1-1.14.245l-1.608.086-.253-4.961q-.033-.652.311-.854a2.6,2.6,0,0,1,1.116-.243l1.624-.087.253,4.961q.033.652-.3.853" transform="translate(-203.887 -264.731)"/>
    <path id="패스_33038" data-name="패스 33038" d="M419.637,275.337a4.468,4.468,0,0,0-1.048-1.9,3.936,3.936,0,0,0-1.81-1.035,10.2,10.2,0,0,0-5.41.291,3.959,3.959,0,0,0-1.7,1.223,4.489,4.489,0,0,0-.849,2,12.365,12.365,0,0,0-.137,2.837,12.785,12.785,0,0,0,.4,2.713,4.474,4.474,0,0,0,1.008,1.9,3.921,3.921,0,0,0,1.812,1.074,10.082,10.082,0,0,0,5.547-.3,3.951,3.951,0,0,0,1.693-1.263,4.5,4.5,0,0,0,.809-2,12.822,12.822,0,0,0,.118-2.741,12.37,12.37,0,0,0-.426-2.807m-3.909,5.838a2.634,2.634,0,0,1-1.14.245l-1.608.086-.254-4.961q-.033-.652.311-.854a2.6,2.6,0,0,1,1.116-.243l1.624-.087.253,4.961q.033.652-.3.853" transform="translate(-382.639 -255.017)"/>
    <path id="패스_33039" data-name="패스 33039" d="M611.065,262.079l.263,5.152-.08,0a3.642,3.642,0,0,0-.094-.585.908.908,0,0,0-.146-.327l-3.158-4.071-3.634.2.609,11.925,3.859-.207-.263-5.152.08,0a3.619,3.619,0,0,0,.094.585.9.9,0,0,0,.146.327l3.158,4.071,3.634-.2-.609-11.925Z" transform="translate(-565.747 -245.372)"/>
    <path id="패스_33040" data-name="패스 33040" d="M814.97,254.621l-.823,8.337,2.54-.137,1.173-3.7,1.43-4.826Z" transform="translate(-762.312 -238.274)"/>
    <path id="패스_33041" data-name="패스 33041" d="M801.729,403.661a1.768,1.768,0,0,0-1.308-.427,1.809,1.809,0,0,0-1.267.566,1.854,1.854,0,0,0,.132,2.576,1.9,1.9,0,0,0,2.576-.119,1.9,1.9,0,0,0-.132-2.595" transform="translate(-747.845 -377.823)"/>
  </g>
</svg>
